<svg id="Capa_1" enable-background="new 0 0 512 512" height="512" viewBox="0 0 512 512" width="512" xmlns="http://www.w3.org/2000/svg"><g fill="#4a5fb3"><path d="m282.913 210.621h144.662c8.284 0 15-6.716 15-15s-6.716-15-15-15h-144.662c-8.284 0-15 6.716-15 15s6.716 15 15 15z"/><path d="m427.575 301.379h-144.662c-8.284 0-15 6.716-15 15s6.716 15 15 15h144.662c8.284 0 15-6.716 15-15s-6.716-15-15-15z"/><path d="m282.913 87.611h72.968c8.284 0 15-6.716 15-15s-6.716-15-15-15h-72.968c-8.284 0-15 6.716-15 15s6.716 15 15 15z"/><path d="m355.881 424.389h-72.968c-8.284 0-15 6.716-15 15s6.716 15 15 15h72.968c8.284 0 15-6.716 15-15s-6.716-15-15-15z"/></g><path d="m292.86 77.332c-98.518 0-178.668 80.15-178.668 178.668s80.15 178.668 178.668 178.668z" fill="#f0f3fa"/><path d="m114.191 256c0 98.518 80.15 178.668 178.668 178.668v-178.668z" fill="#a1ccff"/><path d="m151.334 256c0-69.878 56.647-126.525 126.525-126.525h15v-114.475c0-8.284-6.716-15-15-15h-31.824c-16.045 0-29.129 12.924-29.386 28.909-19.603 5.271-38.465 13.088-56.075 23.241-5.512-5.343-12.755-8.281-20.449-8.281-7.851 0-15.23 3.057-20.782 8.608l-45.007 45.007c-11.347 11.349-11.456 29.746-.327 41.23-10.153 17.614-17.971 36.474-23.24 56.075-15.985.257-28.909 13.341-28.909 29.386v63.648c0 16.045 12.924 29.129 28.909 29.386 5.271 19.602 13.088 38.464 23.241 56.075-11.131 11.483-11.021 29.881.327 41.231l45.007 45.007c11.346 11.345 29.736 11.456 41.23.326 17.612 10.153 36.473 17.971 56.075 23.24.257 15.986 13.341 28.91 29.386 28.91h31.824c8.284 0 15-6.716 15-15v-114.473h-15c-69.878 0-126.525-56.647-126.525-126.525z" fill="#73a3ff"/><path d="m151.334 256h-129.474v31.824c0 16.045 12.924 29.129 28.909 29.386 5.271 19.602 13.088 38.464 23.241 56.075-11.131 11.483-11.021 29.881.327 41.231l45.007 45.007c11.346 11.345 29.736 11.456 41.23.326 17.612 10.153 36.473 17.971 56.075 23.24.257 15.986 13.341 28.91 29.386 28.91h31.824c8.284 0 15-6.716 15-15v-114.474h-15c-69.878 0-126.525-56.647-126.525-126.525z" fill="#4b6fb3"/><circle cx="384.444" cy="72.611" fill="#ffa43d" r="34.002"/><path d="m384.444 38.609c18.779 0 34.002 15.223 34.002 34.002s-15.223 34.002-34.002 34.002z" fill="#ff6a00"/><circle cx="456.138" cy="195.621" fill="#ffa43d" r="34.002"/><path d="m456.138 161.619c18.779 0 34.002 15.223 34.002 34.002s-15.223 34.002-34.002 34.002z" fill="#ff6a00"/><circle cx="456.138" cy="316.379" fill="#ffa43d" r="34.002"/><path d="m456.138 282.377c18.779 0 34.002 15.223 34.002 34.002s-15.223 34.002-34.002 34.002z" fill="#ff6a00"/><circle cx="384.444" cy="439.389" fill="#ffa43d" r="34.002"/><path d="m384.444 405.386c18.779 0 34.002 15.223 34.002 34.002s-15.223 34.002-34.002 34.002z" fill="#ff6a00"/></svg>